Coordinates
nRows=230
nColumns=2
inDegrees=yes
endheader
time	ankle_angle_r	
3.16028	 -0.420185	
3.19355	 -0.400924	
3.22681	 -0.396729	
3.26008	 -0.420765	
3.29335	 -0.422760	
3.32661	 -0.402823	
3.35988	 -0.442505	
3.39315	 -0.401504	
3.42641	 -0.400959	
3.45968	 -0.416956	
3.49294	 -0.386474	
3.52621	 -0.391566	
3.55948	 -0.396729	
3.59274	 -0.381470	
3.62601	 -0.370565	
3.65927	 -0.396729	
3.69254	 -0.387116	
3.72581	 -0.360468	
3.75907	 -0.400309	
3.79234	 -0.387406	
3.8256	 -0.366211	
3.85887	 -0.408858	
3.89214	 -0.381470	
3.9254	 -0.366211	
3.95867	 -0.418407	
3.99194	 -0.372727	
4.0252	 -0.388082	
4.05847	 -0.403438	
4.09173	 -0.366211	
4.125	 -0.398182	
4.15827	 -0.404988	
4.19153	 -0.389632	
4.2248	 -0.412860	
4.25806	 -0.404018	
4.29133	 -0.388856	
4.3246	 -0.411987	
4.35786	 -0.411987	
4.39113	 -0.404311	
4.4244	 -0.411700	
4.45766	 -0.442505	
4.49093	 -0.404021	
4.52419	 -0.419183	
4.55746	 -0.403828	
4.59073	 -0.403731	
4.62399	 -0.442505	
4.65726	 -0.434055	
4.69052	 -0.396729	
4.72379	 -0.451148	
4.75706	 -0.427246	
4.79032	 -0.436083	
4.82359	 -0.451438	
4.85685	 -0.427246	
4.89012	 -0.433378	
4.92339	 -0.463799	
4.95665	 -0.448444	
4.98992	 -0.421404	
5.02319	 -0.478768	
5.05645	 -0.478671	
5.08972	 -0.411987	
5.12298	 -0.438157	
5.15625	 -0.467664	
5.18952	 -0.417249	
5.22278	 -0.442505	
5.25605	 -0.452695	
5.28931	 -0.452792	
5.32258	 -0.447380	
5.35585	 -0.488281	
5.38911	 -0.437823	
5.42238	 -0.442505	
5.45565	 -0.451482	
5.48891	 -0.401120	
5.52218	 -0.468727	
5.55544	 -0.510402	
5.58871	 -0.435450	
5.62198	 -0.500297	
5.65524	 -0.499632	
5.68851	 -0.457764	
5.72177	 -0.511369	
5.75504	 -0.473022	
5.78831	 -0.457764	
5.82157	 -0.500115	
5.85484	 -0.488281	
5.8881	 -0.424014	
5.92137	 -0.485146	
5.95464	 -0.427246	
5.9879	 -0.427246	
6.02117	 -0.436815	
6.05444	 -0.396729	
6.0877	 -0.429898	
6.12097	 -0.427246	
6.15423	 -0.394270	
6.1875	 -0.427246	
6.22077	 -0.431776	
6.25403	 -0.427246	
6.2873	 -0.411987	
6.32056	 -0.427246	
6.35383	 -0.440627	
6.3871	 -0.410206	
6.42036	 -0.444190	
6.45363	 -0.396729	
6.4869	 -0.441014	
6.52016	 -0.430035	
6.55343	 -0.396729	
6.58669	 -0.471821	
6.61996	 -0.397833	
6.65323	 -0.411987	
6.68649	 -0.411987	
6.71976	 -0.397543	
6.75302	 -0.366929	
6.78629	 -0.380849	
6.81956	 -0.427246	
6.85282	 -0.381042	
6.88609	 -0.381801	
6.91935	 -0.397197	
6.95262	 -0.411850	
6.98589	 -0.350993	
7.01915	 -0.427302	
7.05242	 -0.396729	
7.08569	 -0.366460	
7.11895	 -0.442159	
7.15222	 -0.488281	
7.18548	 -0.443044	
7.21875	 -0.457764	
7.25202	 -0.382935	
7.28528	 -0.367040	
7.31855	 -0.411987	
7.35181	 -0.381470	
7.38508	 -0.381470	
7.41835	 -0.383902	
7.45161	 -0.381470	
7.48488	 -0.395319	
7.51815	 -0.425740	
7.55141	 -0.381470	
7.58468	 -0.393330	
7.61794	 -0.411987	
7.65121	 -0.368104	
7.68448	 -0.423267	
7.71774	 -0.427246	
7.75101	 -0.396729	
7.78427	 -0.442505	
7.81754	 -0.427246	
7.85081	 -0.396729	
7.88407	 -0.424677	
7.91734	 -0.411987	
7.9506	 -0.409224	
7.98387	 -0.439645	
8.01714	 -0.427246	
8.0504	 -0.408934	
8.08367	 -0.433545	
8.11694	 -0.430492	
8.1502	 -0.400072	
8.18347	 -0.423806	
8.21673	 -0.442505	
8.25	 -0.404721	
8.28327	 -0.438775	
8.31653	 -0.434852	
8.3498	 -0.411987	
8.38306	 -0.442505	
8.41633	 -0.427246	
8.4496	 -0.409368	
8.48286	 -0.420607	
8.51613	 -0.438098	
8.5494	 -0.422743	
8.58266	 -0.421187	
8.61593	 -0.427246	
8.64919	 -0.422453	
8.68246	 -0.427246	
8.71573	 -0.427246	
8.74899	 -0.401812	
8.78226	 -0.437325	
8.81552	 -0.477728	
8.84879	 -0.402102	
8.88206	 -0.432716	
8.91532	 -0.468897	
8.94859	 -0.473022	
8.98185	 -0.467262	
9.01512	 -0.478879	
9.04839	 -0.421293	
9.08165	 -0.457764	
9.11492	 -0.439540	
9.14819	 -0.421003	
9.18145	 -0.457764	
9.21472	 -0.409602	
9.24798	 -0.411987	
9.28125	 -0.425248	
9.31452	 -0.403455	
9.34778	 -0.410376	
9.38105	 -0.418908	
9.41431	 -0.420229	
9.44758	 -0.410956	
9.48085	 -0.427246	
9.51411	 -0.396729	
9.54738	 -0.411536	
9.58065	 -0.426988	
9.61391	 -0.396729	
9.64718	 -0.442634	
9.68044	 -0.434714	
9.71371	 -0.388841	
9.74698	 -0.442505	
9.78024	 -0.412890	
9.81351	 -0.403810	
9.84677	 -0.405002	
9.88004	 -0.441022	
9.91331	 -0.405196	
9.94657	 -0.398598	
9.97984	 -0.411987	
10.0131	 -0.411987	
10.0464	 -0.387874	
10.0796	 -0.433554	
10.1129	 -0.411987	
10.1462	 -0.366211	
10.1794	 -0.442505	
10.2127	 -0.396729	
10.246	 -0.381470	
10.2792	 -0.463492	
10.3125	 -0.396729	
10.3458	 -0.381470	
10.379	 -0.417425	
10.4123	 -0.396729	
10.4456	 -0.371455	
10.4788	 -0.396729	
10.5121	 -0.427246	
10.5454	 -0.381470	
10.5786	 -0.411987	
10.6119	 -0.381470	
10.6452	 -0.370875	
10.6784	 -0.416555	
10.7117	 -0.381470	
10.745	 -0.374960	
10.7782	 -0.411987	
